<svg width="101" height="100" viewBox="0 0 101 100" fill="none" xmlns="http://www.w3.org/2000/svg">
<circle cx="50.5" cy="50" r="50" fill="#914DFF"/>
<path d="M39.043 38.688L29.699 62H24.803L15.459 38.688H19.811C20.2803 38.688 20.659 38.8 20.947 39.024C21.235 39.2373 21.4537 39.5147 21.603 39.856L26.115 52.336C26.3283 52.88 26.5363 53.4773 26.739 54.128C26.9417 54.768 27.1337 55.44 27.315 56.144C27.4643 55.44 27.6297 54.768 27.811 54.128C28.003 53.4773 28.2057 52.88 28.419 52.336L32.899 39.856C33.0163 39.5573 33.2243 39.2907 33.523 39.056C33.8323 38.8107 34.211 38.688 34.659 38.688H39.043ZM62.9173 50.336C62.9173 52.0213 62.6239 53.5893 62.0373 55.04C61.4613 56.4907 60.6453 57.7547 59.5893 58.832C58.5333 59.8987 57.2586 60.736 55.7653 61.344C54.2826 61.952 52.6346 62.256 50.8213 62.256C49.0079 62.256 47.3546 61.952 45.8612 61.344C44.3679 60.736 43.0879 59.8987 42.0213 58.832C40.9653 57.7547 40.1439 56.4907 39.5573 55.04C38.9813 53.5893 38.6933 52.0213 38.6933 50.336C38.6933 48.6507 38.9813 47.0827 39.5573 45.632C40.1439 44.1813 40.9653 42.9227 42.0213 41.856C43.0879 40.7893 44.3679 39.952 45.8612 39.344C47.3546 38.736 49.0079 38.432 50.8213 38.432C52.6346 38.432 54.2826 38.7413 55.7653 39.36C57.2586 39.968 58.5333 40.8053 59.5893 41.872C60.6453 42.9387 61.4613 44.1973 62.0373 45.648C62.6239 47.0987 62.9173 48.6613 62.9173 50.336ZM57.3813 50.336C57.3813 49.184 57.2319 48.1493 56.9333 47.232C56.6346 46.304 56.2026 45.52 55.6373 44.88C55.0826 44.24 54.3999 43.7493 53.5893 43.408C52.7786 43.0667 51.8559 42.896 50.8213 42.896C49.7759 42.896 48.8426 43.0667 48.0213 43.408C47.2106 43.7493 46.5226 44.24 45.9573 44.88C45.4026 45.52 44.9759 46.304 44.6773 47.232C44.3786 48.1493 44.2293 49.184 44.2293 50.336C44.2293 51.4987 44.3786 52.544 44.6773 53.472C44.9759 54.3893 45.4026 55.168 45.9573 55.808C46.5226 56.448 47.2106 56.9387 48.0213 57.28C48.8426 57.6107 49.7759 57.776 50.8213 57.776C51.8559 57.776 52.7786 57.6107 53.5893 57.28C54.3999 56.9387 55.0826 56.448 55.6373 55.808C56.2026 55.168 56.6346 54.3893 56.9333 53.472C57.2319 52.544 57.3813 51.4987 57.3813 50.336ZM85.2873 62H79.8793C79.5273 62 79.2393 61.9147 79.0153 61.744C78.8019 61.5733 78.6313 61.3707 78.5033 61.136L73.8313 52.976C73.7459 53.2107 73.6499 53.4133 73.5433 53.584L69.1913 61.136C69.0419 61.3493 68.8659 61.5467 68.6633 61.728C68.4606 61.9093 68.1993 62 67.8793 62H62.8232L70.3273 50L63.1113 38.688H68.5193C68.8713 38.688 69.1273 38.736 69.2873 38.832C69.4579 38.9173 69.6073 39.0667 69.7353 39.28L74.3753 47.136C74.4286 46.9973 74.4873 46.864 74.5513 46.736C74.6259 46.608 74.7059 46.4747 74.7913 46.336L78.8553 39.36C79.0046 39.1253 79.1593 38.9547 79.3193 38.848C79.4899 38.7413 79.6979 38.688 79.9433 38.688H85.1273L77.8153 49.776L85.2873 62Z" fill="white"/>
</svg>
