<svg width="14" height="12" viewBox="0 0 14 12" fill="none" xmlns="http://www.w3.org/2000/svg">
<path d="M12.3565 3.27801C12.718 3.24902 13.1139 3.34451 13.3966 3.56569C13.7659 3.85464 13.9512 4.28156 13.9922 4.72769C14.047 5.32365 13.8075 5.94316 13.4071 6.398C13.0606 6.79164 12.5624 7.12824 12.0105 7.17533L11.9962 7.17719C11.6021 7.22585 11.2364 7.11419 10.9262 6.88282C10.6131 6.64931 10.4074 6.25139 10.3613 5.87898C10.28 5.22183 10.4934 4.59614 10.9238 4.07988C11.2772 3.65595 11.7837 3.34162 12.3565 3.27801Z" fill="white"/>
<path d="M1.5205 3.27832C2.02398 3.29482 2.47631 3.48694 2.84141 3.81634C3.32477 4.25244 3.63172 4.8978 3.64563 5.53288C3.65535 5.97737 3.54451 6.45151 3.2084 6.7809C3.00074 6.9844 2.73033 7.1246 2.43533 7.17226C2.33508 7.18845 2.23327 7.18927 2.13185 7.19079C2.03072 7.18548 1.93196 7.17879 1.83262 7.15886C1.47148 7.08639 1.13861 6.90238 0.864277 6.67229C0.361798 6.25083 0.0408103 5.62174 0.0033534 4.98634C-0.0234629 4.53163 0.109604 4.05874 0.436746 3.71615C0.722649 3.41674 1.10629 3.29724 1.5205 3.27832Z" fill="white"/>
<path d="M4.56969 0.00517369C4.97923 -0.0197025 5.38276 0.165139 5.68394 0.415974C6.21204 0.855796 6.52773 1.54368 6.56694 2.20546C6.60056 2.77317 6.42282 3.34183 6.01583 3.76561C5.74538 4.0472 5.39385 4.21547 4.99181 4.23426C4.56887 4.2546 4.17479 4.08291 3.85841 3.82587C3.33018 3.39669 3.04648 2.71859 2.99628 2.0708C2.9543 1.52905 3.10613 0.953212 3.48303 0.536127C3.76696 0.221959 4.13555 0.036726 4.56969 0.00517369Z" fill="white"/>
<path d="M9.24744 0.00511808C9.60747 -0.024704 9.9715 0.0766944 10.2585 0.28589C10.6986 0.606799 10.9406 1.09296 11.012 1.60882C11.1056 2.28447 10.9006 2.9768 10.4641 3.51513C10.1684 3.87972 9.75549 4.15009 9.26927 4.21169C8.87679 4.25141 8.50712 4.15215 8.19294 3.92487C7.76969 3.61868 7.54187 3.13377 7.47421 2.64216C7.38158 1.9692 7.59968 1.23636 8.03617 0.700787C8.34281 0.324542 8.74557 0.0658885 9.24744 0.00511808Z" fill="white"/>
<path d="M6.77365 4.66559C7.34518 4.6048 8.02486 4.79498 8.49488 5.10275C8.93326 5.38981 9.27376 5.77331 9.50742 6.22726C9.58976 6.3872 9.66081 6.55261 9.747 6.71073C9.83489 6.87198 9.94465 7.0316 10.0618 7.17492C10.6485 7.8927 11.6829 8.29432 11.8675 9.26801C11.9442 9.67224 11.8495 10.0707 11.6933 10.4466C11.5987 10.6743 11.4797 10.8979 11.3308 11.098C11.0273 11.5059 10.5769 11.8918 10.0449 11.9862C9.90107 12.0118 9.74165 11.9979 9.59799 11.9751C9.27276 11.9233 8.94773 11.8049 8.65215 11.6682C8.20432 11.4611 7.7805 11.2135 7.27967 11.1415C6.95135 11.1043 6.64091 11.1394 6.32761 11.2395C6.14046 11.2992 5.96286 11.3851 5.78626 11.4682C5.31796 11.6885 4.86059 11.9184 4.33358 11.9766L4.29108 11.9811C3.85903 12.0156 3.4719 11.8457 3.14654 11.5867C2.58913 11.1431 2.20567 10.4641 2.14404 9.77471C2.12042 9.51061 2.14925 9.24157 2.24567 8.99186C2.36792 8.67521 2.59633 8.40139 2.84324 8.16337C3.01762 7.9953 3.20966 7.84161 3.39325 7.68251C3.60472 7.49927 3.81475 7.31286 3.98287 7.09138C4.20998 6.79221 4.36065 6.46118 4.5458 6.13939C4.66962 5.9242 4.81252 5.72 4.9804 5.53345C5.30993 5.16721 5.79843 4.87144 6.28651 4.74276C6.44696 4.70047 6.60808 4.67865 6.77365 4.66559Z" fill="white"/>
</svg>
