<svg width="18" height="18" viewBox="0 0 18 18" fill="none" xmlns="http://www.w3.org/2000/svg">
<g id="elements">
<path id="Vector (Stroke)" fill-rule="evenodd" clip-rule="evenodd" d="M13.1411 13.1401C13.3851 12.896 13.7809 12.896 14.0249 13.1401L17.7749 16.8901C18.019 17.1342 18.019 17.5299 17.7749 17.774C17.5309 18.0181 17.1351 18.0181 16.8911 17.774L13.1411 14.024C12.897 13.7799 12.897 13.3842 13.1411 13.1401Z" fill="#81899C"/>
<path id="Vector (Stroke)_2" fill-rule="evenodd" clip-rule="evenodd" d="M0.0415039 8.16602C0.0415039 3.6787 3.67919 0.0410156 8.1665 0.0410156C12.6538 0.0410156 16.2915 3.6787 16.2915 8.16602C16.2915 12.6533 12.6538 16.291 8.1665 16.291C3.67919 16.291 0.0415039 12.6533 0.0415039 8.16602ZM8.1665 1.29102C4.36955 1.29102 1.2915 4.36906 1.2915 8.16602C1.2915 11.963 4.36955 15.041 8.1665 15.041C11.9635 15.041 15.0415 11.963 15.0415 8.16602C15.0415 4.36906 11.9635 1.29102 8.1665 1.29102Z" fill="#81899C"/>
</g>
</svg>
