<svg width="16" height="16" viewBox="0 0 16 16" fill="none" xmlns="http://www.w3.org/2000/svg">
<g id="Close-Icon">
<path id="Vector" d="M7.99992 1.33398C4.32659 1.33398 1.33325 4.32732 1.33325 8.00065C1.33325 11.674 4.32659 14.6673 7.99992 14.6673C11.6733 14.6673 14.6666 11.674 14.6666 8.00065C14.6666 4.32732 11.6733 1.33398 7.99992 1.33398ZM10.2399 9.53398C10.4333 9.72732 10.4333 10.0473 10.2399 10.2407C10.1399 10.3407 10.0133 10.3873 9.88658 10.3873C9.75992 10.3873 9.63325 10.3407 9.53325 10.2407L7.99992 8.70732L6.46658 10.2407C6.36658 10.3407 6.23992 10.3873 6.11325 10.3873C5.98659 10.3873 5.85992 10.3407 5.75992 10.2407C5.56659 10.0473 5.56659 9.72732 5.75992 9.53398L7.29325 8.00065L5.75992 6.46732C5.56659 6.27398 5.56659 5.95398 5.75992 5.76065C5.95325 5.56732 6.27325 5.56732 6.46658 5.76065L7.99992 7.29398L9.53325 5.76065C9.72658 5.56732 10.0466 5.56732 10.2399 5.76065C10.4333 5.95398 10.4333 6.27398 10.2399 6.46732L8.70658 8.00065L10.2399 9.53398Z" fill="#81899C"/>
</g>
</svg>
